#!OML:ASF I:\Actors\actors\Patient Classification 2\Patient 1\Session 1\actor1.ASF
:FULLY-SPECIFIED
:DEGREES
496
root -0.61184 18.7157 5.67852 2.03233 -3.90938 -4.9051
lowerback 5.54866 0.525232 0.207251
upperback 0.806463 0.721651 0.424475
thorax -2.28326 0.359081 0.266431
lowerneck -6.92177 -0.63426 0.497239
upperneck 21.1065 -1.68035 3.42179
head 7.65193 -0.461419 0.893853
rclavicle -1.95803e-014 7.95139e-016
rhumerus 4.97992 32.8526 -37.6183
rradius 121.407
rwrist -66.5263
rhand 14.7175 -63.5047
rfingers 7.12502
rthumb 39.5857 -88.8544
lclavicle -1.95803e-014 7.95139e-016
lhumerus -29.4265 -25.9496 86.9414
lradius 116.555
lwrist 14.6518
lhand -5.2337 -36.6772
lfingers 7.12502
lthumb 20.5689 -7.7469
rfemur 0 0 0
rtibia 0
rfoot 0 0
rtoes 0
lfemur -5.91866 -5.1354 -9.55968
ltibia 23.7345
lfoot -24.2351 15.241
ltoes -55.1719
497
root -0.61313 18.7187 5.6834 2.09087 -3.90832 -4.91758
lowerback 5.24754 0.487065 0.113708
upperback 0.986344 0.665045 0.508186
thorax -1.9319 0.331753 0.41271
lowerneck -6.87237 -0.592452 0.408663
upperneck 20.7263 -1.60304 3.46263
head 7.51704 -0.433747 0.927057
rclavicle 1.27719e-014 7.95139e-016
rhumerus 5.07896 32.003 -37.667
rradius 121.305
rwrist -66.5087
rhand 15.4907 -63.5867
rfingers 7.12502
rthumb 40.3133 -88.7174
lclavicle 1.27719e-014 7.95139e-016
lhumerus -29.1063 -25.7996 86.8581
lradius 116.605
lwrist 14.6603
lhand -5.33024 -36.6354
lfingers 7.12502
lthumb 20.4761 -7.69513
rfemur 0 0 0
rtibia 0
rfoot 0 0
rtoes 0
lfemur -5.96967 -5.07428 -9.53245
ltibia 23.7385
lfoot -24.227 15.2172
ltoes -55.1769
498
root -0.612242 18.7206 5.68988 2.11817 -3.91659 -4.87636
lowerback 5.25801 0.482151 0.133026
upperback 0.973585 0.659082 0.48027
thorax -1.95028 0.328617 0.373454
lowerneck -6.72681 -0.575972 0.387165
upperneck 20.4988 -1.5848 3.55369
head 7.41667 -0.423448 0.961177
rclavicle -8.59744e-015 -1.27222e-014
rhumerus 5.26689 31.4984 -37.5553
rradius 121.515
rwrist -66.8998
rhand 15.7163 -63.6916
rfingers 7.12502
rthumb 40.5254 -88.757
lclavicle -8.59744e-015 -1.27222e-014
lhumerus -29.1529 -25.8031 86.8545
lradius 116.669
lwrist 14.6886
lhand -5.36457 -36.5983
lfingers 7.12502
lthumb 20.4431 -7.65443
rfemur 0 0 0
rtibia 0
rfoot 0 0
rtoes 0
lfemur -5.97962 -5.07481 -9.58717
ltibia 23.7546
lfoot -24.2967 15.2391
ltoes -55.1975
499
root -0.611455 18.7208 5.69628 2.13589 -3.90897 -4.85947
lowerback 5.50919 0.498414 0.311605
upperback 0.808777 0.690953 0.384361
thorax -2.25697 0.342829 0.169323
lowerneck -6.483 -0.594619 0.33848
upperneck 20.3468 -1.63487 3.75912
head 7.32609 -0.438004 1.03201
rclavicle -8.99501e-015 3.97569e-015
rhumerus 5.04758 31.1378 -37.7619
rradius 121.689
rwrist -67.36
rhand 16.0172 -63.8901
rfingers 7.12502
rthumb 40.8083 -88.8671
lclavicle -8.99501e-015 3.97569e-015
lhumerus -29.4676 -25.9136 86.9231
lradius 116.732
lwrist 14.7515
lhand -5.29404 -36.6088
lfingers 7.12502
lthumb 20.5109 -7.67229
rfemur 0 0 0
rtibia 0
rfoot 0 0
rtoes 0
lfemur -5.9886 -5.06438 -9.61064
ltibia 23.7754
lfoot -24.2915 15.2516
ltoes -55.2748
500
root -0.612391 18.7206 5.70112 2.15787 -3.88749 -4.89785
lowerback 5.20376 0.445671 0.213106
upperback 1.04419 0.614588 0.497236
thorax -1.84651 0.305985 0.349778
lowerneck -6.5847 -0.553667 0.240761
upperneck 20.0301 -1.56007 3.7894
head 7.24004 -0.41043 1.06249
rclavicle -1.38155e-014 7.95139e-015
rhumerus 5.65494 30.6093 -37.4808
rradius 121.753
rwrist -67.7988
rhand 16.4493 -64.0375
rfingers 7.12502
rthumb 41.214 -88.8855
lclavicle -1.38155e-014 7.95139e-015
lhumerus -29.0589 -25.6201 86.867
lradius 116.651
lwrist 14.7443
lhand -5.28071 -36.5738
lfingers 7.12502
lthumb 20.5237 -7.63863
rfemur 0 0 0
rtibia 0
rfoot 0 0
rtoes 0
lfemur -6.01656 -5.03173 -9.55757
ltibia 23.7956
lfoot -24.2569 15.2157
ltoes -55.3077
501
root -0.61305 18.7202 5.70613 2.17012 -3.85814 -4.92822
lowerback 5.26664 0.434871 0.323884
upperback 1.0286 0.605836 0.45437
thorax -1.896 0.300915 0.243628
lowerneck -6.48704 -0.590981 0.313841
upperneck 19.8716 -1.61535 3.79526
head 7.17182 -0.434534 1.04695
rclavicle -4.07509e-015 4.77083e-015
rhumerus 5.61539 30.3911 -37.6314
rradius 121.914
rwrist -68.1326
rhand 16.6499 -64.1763
rfingers 7.12502
rthumb 41.4023 -88.9634
lclavicle -4.07509e-015 4.77083e-015
lhumerus -29.0291 -25.6225 86.8666
lradius 116.549
lwrist 14.7169
lhand -5.35478 -36.5379
lfingers 7.12502
lthumb 20.4525 -7.5951
rfemur 0 0 0
rtibia 0
rfoot 0 0
rtoes 0
lfemur -6.03488 -5.00884 -9.51589
ltibia 23.8185
lfoot -24.2657 15.1539
ltoes -55.3097
502
root -0.613476 18.7195 5.71072 2.17517 -3.83544 -4.93683
lowerback 5.30485 0.415087 0.379326
upperback 1.03663 0.582144 0.425707
thorax -1.90818 0.28872 0.184444
lowerneck -6.33907 -0.602955 0.384117
upperneck 19.6121 -1.61815 3.73913
head 7.06039 -0.441152 1.01572
rclavicle 1.49089e-014 -1.03368e-014
rhumerus 5.60659 30.2633 -37.7467
rradius 122.085
rwrist -68.5031
rhand 16.7186 -64.3118
rfingers 7.12502
rthumb 41.4668 -89.078
lclavicle 1.49089e-014 -1.03368e-014
lhumerus -28.9935 -25.6051 86.8942
lradius 116.451
lwrist 14.7719
lhand -5.36515 -36.582
lfingers 7.12502
lthumb 20.4425 -7.63807
rfemur 0 0 0
rtibia 0
rfoot 0 0
rtoes 0
lfemur -6.03568 -4.99169 -9.50213
ltibia 23.8342
lfoot -24.25 15.1284
ltoes -55.3094
503
root -0.615343 18.7191 5.7141 2.17066 -3.81693 -4.93725
lowerback 5.63855 0.434144 0.552997
upperback 0.844854 0.618461 0.302259
thorax -2.28862 0.304422 -0.0460705
lowerneck -5.92929 -0.648336 0.451207
upperneck 19.3513 -1.69202 3.84391
head 6.90517 -0.471832 1.03232
rclavicle -6.80837e-015 -1.59028e-015
rhumerus 5.13545 30.3095 -38.1328
rradius 122.322
rwrist -68.8321
rhand 16.9572 -64.3739
rfingers 7.12502
rthumb 41.6906 -89.0667
lclavicle -6.80837e-015 -1.59028e-015
lhumerus -29.2996 -25.8235 87.0074
lradius 116.436
lwrist 14.9123
lhand -5.4103 -36.614
lfingers 7.12502
lthumb 20.3992 -7.66548
rfemur 0 0 0
rtibia 0
rfoot 0 0
rtoes 0
lfemur -6.02675 -4.94711 -9.48935
ltibia 23.8356
lfoot -24.1903 15.0949
ltoes -55.3
504
root -0.617503 18.7184 5.71735 2.15791 -3.79646 -4.94099
lowerback 5.37216 0.396229 0.391225
upperback 1.08407 0.557166 0.395051
thorax -1.8966 0.276158 0.147703
lowerneck -5.81708 -0.647762 0.385516
upperneck 18.8407 -1.65787 3.83005
head 6.72034 -0.470466 1.03941
rclavicle -6.01324e-015 7.95139e-015
rhumerus 5.51315 30.0456 -37.9659
rradius 122.479
rwrist -69.3267
rhand 17.2711 -64.5195
rfingers 7.12502
rthumb 41.985 -89.1146
lclavicle -6.01324e-015 7.95139e-015
lhumerus -28.9456 -25.6721 86.9981
lradius 116.363
lwrist 14.9187
lhand -5.50222 -36.5554
lfingers 7.12502
lthumb 20.3108 -7.59748
rfemur 0 0 0
rtibia 0
rfoot 0 0
rtoes 0
lfemur -6.0054 -4.92261 -9.4739
ltibia 23.8285
lfoot -24.1562 15.0586
ltoes -55.2958
505
root -0.618323 18.718 5.72031 2.15306 -3.78814 -4.94458
lowerback 5.37419 0.401441 0.395677
upperback 1.16221 0.564005 0.402892
thorax -1.81748 0.279688 0.153122
lowerneck -5.68637 -0.697005 0.256939
upperneck 18.4844 -1.71955 3.97792
head 6.58621 -0.504222 1.10257
rclavicle 3.32964e-015 2.14687e-014
rhumerus 5.4979 29.7798 -37.9935
rradius 122.707
rwrist -69.8427
rhand 17.6287 -64.5349
rfingers 7.12502
rthumb 42.32 -89.0168
lclavicle 3.32964e-015 2.14687e-014
lhumerus -28.8515 -25.7248 87.0105
lradius 116.366
lwrist 14.8616
lhand -5.49609 -36.4316
lfingers 7.12502
lthumb 20.3167 -7.47431
rfemur 0 0 0
rtibia 0
rfoot 0 0
rtoes 0
lfemur -5.98163 -4.95285 -9.47202
ltibia 23.8196
lfoot -24.1766 15.0693
ltoes -55.2446
506
root -0.618041 18.7183 5.72306 2.15078 -3.80881 -4.96262
lowerback 5.40815 0.402994 0.417392
upperback 1.23791 0.567569 0.432001
thorax -1.75875 0.281498 0.170665
lowerneck -5.56449 -0.705062 0.0974901
upperneck 18.1191 -1.71995 4.12372
head 6.45018 -0.510825 1.17452
rclavicle 2.18663e-015 1.90833e-014
rhumerus 5.59741 29.4527 -37.9438
rradius 122.963
rwrist -70.2859
rhand 18.013 -64.4233
rfingers 7.12502
rthumb 42.6797 -88.7814
lclavicle 2.18663e-015 1.90833e-014
lhumerus -28.7242 -25.7635 87.0031
lradius 116.423
lwrist 14.8951
lhand -5.49718 -36.4119
lfingers 7.12502
lthumb 20.3157 -7.45447
rfemur 0 0 0
rtibia 0
rfoot 0 0
rtoes 0
lfemur -5.95652 -4.99202 -9.46586
ltibia 23.8132
lfoot -24.2254 15.1407
ltoes -55.192
507
root -0.617908 18.7182 5.72624 2.15524 -3.86314 -4.99431
lowerback 5.47254 0.396696 0.447741
upperback 1.28554 0.561643 0.464922
thorax -1.74578 0.278466 0.187573
lowerneck -5.40289 -0.68903 -0.0162503
upperneck 17.75 -1.67617 4.17765
head 6.3044 -0.500691 1.21255
rclavicle -1.39149e-015 1.03368e-014
rhumerus 5.73815 29.1196 -37.9383
rradius 123.228
rwrist -70.6953
rhand 18.1217 -64.5269
rfingers 7.12502
rthumb 42.7814 -88.8496
lclavicle -1.39149e-015 1.03368e-014
lhumerus -28.6486 -25.7559 86.9787
lradius 116.505
lwrist 14.9736
lhand -5.56079 -36.4836
lfingers 7.12502
lthumb 20.2545 -7.51963
rfemur 0 0 0
rtibia 0
rfoot 0 0
rtoes 0
lfemur -5.93167 -5.01977 -9.4457
ltibia 23.8059
lfoot -24.2856 15.2174
ltoes -55.1765
508
root -0.619034 18.7178 5.72908 2.17913 -3.91359 -4.98797
lowerback 5.54212 0.394134 0.452829
upperback 1.30409 0.558622 0.452145
thorax -1.76538 0.276884 0.171369
lowerneck -5.26067 -0.699709 -0.169376
upperneck 17.4239 -1.68524 4.33985
head 6.17847 -0.509557 1.28788
rclavicle 1.80894e-014 -1.59028e-014
rhumerus 5.78672 28.763 -38.034
rradius 123.477
rwrist -70.952
rhand 18.2654 -64.6366
rfingers 7.12502
rthumb 42.9159 -88.9122
lclavicle 1.80894e-014 -1.59028e-014
lhumerus -28.6369 -25.7451 86.9105
lradius 116.586
lwrist 15.0574
lhand -5.5638 -36.5595
lfingers 7.12502
lthumb 20.2516 -7.59526
rfemur 0 0 0
rtibia 0
rfoot 0 0
rtoes 0
lfemur -5.93293 -4.95495 -9.44774
ltibia 23.7964
lfoot -24.2921 15.1961
ltoes -55.1701
509
root -0.620713 18.7182 5.73096 2.20399 -3.94792 -4.95631
lowerback 5.62848 0.398824 0.440422
upperback 1.30551 0.564034 0.41708
thorax -1.81186 0.279505 0.141294
lowerneck -5.03586 -0.753928 -0.316183
upperneck 17.0033 -1.75071 4.51039
head 6.01032 -0.547378 1.36058
rclavicle 1.68967e-015 6.36111e-015
rhumerus 5.82205 28.361 -38.1321
rradius 123.684
rwrist -71.1401
rhand 18.4526 -64.4762
rfingers 7.12502
rthumb 43.0909 -88.6899
lclavicle 1.68967e-015 6.36111e-015
lhumerus -28.6232 -25.7453 86.8117
lradius 116.635
lwrist 15.1215
lhand -5.48302 -36.6139
lfingers 7.12502
lthumb 20.3293 -7.65795
rfemur 0 0 0
rtibia 0
rfoot 0 0
rtoes 0
lfemur -5.94677 -4.86208 -9.47042
ltibia 23.7922
lfoot -24.2747 15.1547
ltoes -55.1577
510
root -0.621391 18.7193 5.73206 2.21527 -3.97822 -4.93858
lowerback 5.75824 0.402518 0.460845
upperback 1.29614 0.570452 0.385405
thorax -1.89336 0.282412 0.0958018
lowerneck -4.76242 -0.818228 -0.340983
upperneck 16.5289 -1.81182 4.50691
head 5.81545 -0.589719 1.35824
rclavicle 7.95139e-016 3.97569e-015
rhumerus 5.84311 27.9768 -38.2316
rradius 123.879
rwrist -71.5055
rhand 18.3874 -64.4024
rfingers 7.12502
rthumb 43.03 -88.6378
lclavicle 7.95139e-016 3.97569e-015
lhumerus -28.5941 -25.7442 86.7006
lradius 116.654
lwrist 15.0875
lhand -5.40084 -36.5329
lfingers 7.12502
lthumb 20.4082 -7.58532
rfemur 0 0 0
rtibia 0
rfoot 0 0
rtoes 0
lfemur -5.95065 -4.81197 -9.48788
ltibia 23.794
lfoot -24.2813 15.137
ltoes -55.1571
511
root -0.621217 18.7213 5.73267 2.24797 -4.00016 -4.91395
lowerback 6.12705 0.432631 0.632625
upperback 1.11513 0.622287 0.256146
thorax -2.28198 0.305822 -0.141308
lowerneck -4.43732 -0.901037 -0.305103
upperneck 16.2313 -1.92014 4.55845
head 5.66917 -0.64561 1.36155
rclavicle 2.88238e-015 -1.59028e-015
rhumerus 5.39099 27.7592 -38.5764
rradius 124.112
rwrist -71.7476
rhand 18.5755 -64.5674
rfingers 7.12502
rthumb 43.2058 -88.7402
lclavicle 2.88238e-015 -1.59028e-015
lhumerus -28.8146 -25.9274 86.6248
lradius 116.682
lwrist 15.1115
lhand -5.35396 -36.4526
lfingers 7.12502
lthumb 20.4533 -7.50985
rfemur 0 0 0
rtibia 0
rfoot 0 0
rtoes 0
lfemur -5.983 -4.77127 -9.51324
ltibia 23.7945
lfoot -24.2601 15.1282
ltoes -55.1361
